<svg width="46" height="46" viewBox="0 0 46 46" fill="none" xmlns="http://www.w3.org/2000/svg">
    <path
        d="M14.2558 41.3394C15.8186 41.3394 17.0856 40.0724 17.0856 38.5096C17.0856 36.9467 15.8186 35.6798 14.2558 35.6798C12.693 35.6798 11.426 36.9467 11.426 38.5096C11.426 40.0724 12.693 41.3394 14.2558 41.3394Z"
        fill="#FF725E" />
    <path
        d="M32.6489 41.3401C34.2117 41.3401 35.4786 40.0732 35.4786 38.5103C35.4786 36.9475 34.2117 35.6805 32.6489 35.6805C31.086 35.6805 29.8191 36.9475 29.8191 38.5103C29.8191 40.0732 31.086 41.3401 32.6489 41.3401Z"
        fill="#FF725E" />
    <path
        d="M7.58756 10.9196C6.41543 10.9196 5.46523 11.8698 5.46523 13.0419C5.46523 14.214 6.41543 15.1642 7.58756 15.1642V10.9196ZM39.3164 13.0419L41.357 13.6249C41.54 12.9846 41.4118 12.2955 41.0107 11.7638C40.6097 11.2322 39.9823 10.9196 39.3164 10.9196V13.0419ZM34.6473 29.3838L32.6066 28.8008L32.604 28.8099L34.6473 29.3838ZM31.9236 31.4354L31.9359 29.3131H31.9236V31.4354ZM14.9803 31.4354V29.3131L14.968 29.3131L14.9803 31.4354ZM12.2567 29.3838L14.3 28.8099L14.2972 28.8004L12.2567 29.3838ZM5.85433 6.99326L7.89488 6.40979L7.89483 6.40962L5.85433 6.99326ZM4.4925 5.96747V8.0898L4.49474 8.0898L4.4925 5.96747ZM7.58756 15.1642H39.3164V10.9196H7.58756V15.1642ZM37.2757 12.4589L32.6066 28.8008L36.6879 29.9669L41.357 13.6249L37.2757 12.4589ZM32.604 28.8099C32.5631 28.9554 32.4756 29.0834 32.3549 29.1743L34.9088 32.5648C35.7722 31.9144 36.3982 30.9985 36.6905 29.9578L32.604 28.8099ZM32.3549 29.1743C32.2342 29.2652 32.087 29.314 31.9359 29.3131L31.9113 33.5577C32.9922 33.564 34.0453 33.2151 34.9088 32.5648L32.3549 29.1743ZM31.9236 29.3131H14.9803V33.5577H31.9236V29.3131ZM14.968 29.3131C14.8169 29.314 14.6697 29.2652 14.549 29.1743L11.9952 32.5648C12.8586 33.2151 13.9117 33.564 14.9927 33.5577L14.968 29.3131ZM14.549 29.1743C14.4283 29.0834 14.3408 28.9554 14.2999 28.8099L10.2134 29.9578C10.5058 30.9985 11.1317 31.9144 11.9952 32.5648L14.549 29.1743ZM14.2972 28.8004L7.89488 6.40979L3.81378 7.57674L10.2161 29.9673L14.2972 28.8004ZM7.89483 6.40962C7.68332 5.67014 7.23654 5.01975 6.62219 4.55699L4.06835 7.94743C3.94548 7.85487 3.85613 7.7248 3.81383 7.5769L7.89483 6.40962ZM6.62219 4.55699C6.00784 4.09423 5.25939 3.84433 4.49026 3.84514L4.49474 8.0898C4.34091 8.08996 4.19123 8.03998 4.06835 7.94743L6.62219 4.55699ZM4.4925 3.84514H1.52124V8.0898H4.4925V3.84514Z"
        fill="#F34444" />
</svg>